# Blender 3.6.4
# www.blender.org
mtllib truck_Tire.mtl
o cylinder
v -0.125000 0.001346 -0.003125
v 0.125000 0.001346 -0.003125
v -0.187500 -0.373654 -0.103606
v 0.187500 -0.373654 -0.103606
v -0.187500 -0.273173 -0.277644
v 0.187500 -0.273173 -0.277644
v -0.187500 -0.099135 -0.378125
v 0.187500 -0.099135 -0.378125
v -0.187500 0.101827 -0.378125
v 0.187500 0.101827 -0.378125
v -0.187500 0.275865 -0.277644
v 0.187500 0.275865 -0.277644
v -0.187500 0.376346 -0.103606
v 0.187500 0.376346 -0.103606
v -0.187500 -0.373654 0.097356
v 0.187500 -0.373654 0.097356
v -0.187500 -0.273173 0.271394
v 0.187500 -0.273173 0.271394
v -0.187500 -0.099135 0.371875
v 0.187500 -0.099135 0.371875
v -0.187500 0.101827 0.371875
v 0.187500 0.101827 0.371875
v -0.187500 0.275865 0.271394
v 0.187500 0.275865 0.271394
v -0.187500 0.376346 0.097356
v 0.187500 0.376346 0.097356
v -0.218750 -0.186153 -0.053365
v -0.218750 -0.135914 -0.140385
v -0.218750 -0.048895 -0.190626
v -0.218750 0.051587 -0.190626
v -0.218750 0.138606 -0.140385
v -0.218750 0.188847 -0.053366
v -0.218750 0.188847 0.047116
v -0.218750 0.138607 0.134135
v -0.218750 0.051587 0.184376
v -0.218750 -0.048895 0.184376
v -0.218750 -0.135914 0.134135
v -0.218750 -0.186155 0.047116
v -0.000000 0.110201 -0.409375
v -0.000000 -0.107508 -0.409375
v -0.000000 -0.296049 -0.300521
v -0.000000 -0.404904 -0.111979
v -0.000000 -0.404904 0.105729
v -0.000000 -0.296049 0.294271
v -0.000000 -0.107508 0.403125
v -0.000000 0.110201 0.403125
v -0.000000 0.298742 0.294271
v -0.000000 0.407596 0.105729
v -0.000000 0.407596 -0.111979
v -0.000000 0.298742 -0.300521
v -0.000000 -0.350477 -0.206250
v 0.187500 -0.323413 -0.190625
v -0.187500 -0.323413 -0.190625
v -0.218750 -0.161033 -0.096875
vn -0.9864 -0.1424 -0.0822
vn 0.1644 -0.8542 -0.4932
vn 0.9864 0.1424 0.0822
vn -0.9864 -0.0822 -0.1424
vn 0.1644 -0.4932 -0.8542
vn 0.9864 0.0822 0.1424
vn -0.9864 -0.0000 -0.1644
vn 0.1644 -0.0000 -0.9864
vn 0.9864 -0.0000 0.1644
vn -0.9864 0.0822 -0.1424
vn 0.1644 0.4932 -0.8542
vn 0.9864 -0.0822 0.1424
vn -0.9864 0.1424 -0.0822
vn 0.1644 0.8542 -0.4932
vn 0.9864 -0.1424 0.0822
vn -0.9864 0.1644 -0.0000
vn 0.1644 0.9864 -0.0000
vn 0.9864 -0.1644 -0.0000
vn -0.9864 -0.1644 -0.0000
vn 0.1644 -0.9864 -0.0000
vn 0.9864 0.1644 -0.0000
vn -0.9864 -0.1424 0.0822
vn 0.1644 -0.8542 0.4932
vn 0.9864 0.1424 -0.0822
vn -0.9864 -0.0822 0.1424
vn 0.1644 -0.4932 0.8542
vn 0.9864 0.0822 -0.1424
vn -0.9864 -0.0000 0.1644
vn 0.1644 -0.0000 0.9864
vn 0.9864 -0.0000 -0.1644
vn -0.9864 0.0822 0.1424
vn 0.1644 0.4932 0.8542
vn 0.9864 -0.0822 -0.1424
vn -0.9864 0.1424 0.0822
vn 0.1644 0.8542 0.4932
vn 0.9864 -0.1424 -0.0822
vn 0.8944 -0.3873 -0.2236
vn -0.8944 0.2236 0.3873
vn -0.8944 -0.0000 0.4472
vn -0.8944 -0.2236 0.3873
vn -0.8944 -0.3873 0.2236
vn -0.8944 -0.4472 -0.0000
vn -0.8944 -0.3873 -0.2236
vn -0.8944 -0.2236 -0.3873
vn -0.8944 -0.0000 -0.4472
vn -0.8944 0.2236 -0.3873
vn -0.8944 0.3873 -0.2236
vn -0.8944 0.4472 -0.0000
vn -0.1644 -0.0000 -0.9864
vn -0.1644 -0.4932 -0.8542
vn -0.1644 -0.8542 -0.4932
vn -0.1644 -0.9864 -0.0000
vn -0.1644 -0.8542 0.4932
vn -0.1644 -0.4932 0.8542
vn -0.1644 -0.0000 0.9864
vn -0.1644 0.4932 0.8542
vn -0.1644 0.8542 0.4932
vn -0.1644 0.9864 -0.0000
vn -0.1644 0.8542 -0.4932
vn -0.1644 0.4932 -0.8542
vt 0.051261 0.812222
vt 0.065752 0.859191
vt 0.029947 0.825516
vt 0.520477 0.656250
vt 0.499634 0.606705
vt 0.526742 0.609098
vt 0.257813 0.717458
vt 0.308108 0.636812
vt 0.329423 0.650106
vt 0.053790 0.881281
vt 0.029947 0.825517
vt 0.379509 0.827846
vt 0.435817 0.870583
vt 0.385771 0.875000
vt 0.353349 0.694283
vt 0.257814 0.717457
vt 0.054304 0.906396
vt 0.006021 0.869695
vt 0.433725 0.823061
vt 0.486058 0.870583
vt 0.352323 0.744513
vt 0.032760 0.963088
vt 0.007048 0.919925
vt 0.486058 0.870583
vt 0.542367 0.827846
vt 0.536104 0.875000
vt 0.326613 0.787677
vt 0.257812 0.717456
vt 0.089000 0.940388
vt 0.032760 0.963088
vt 0.067160 0.927977
vt 0.229521 1.000000
vt 0.277473 0.948060
vt 0.279567 0.995582
vt 0.282933 0.812500
vt 0.114122 0.940388
vt 0.076441 0.987910
vt 0.329808 0.995582
vt 0.232692 0.812500
vt 0.116060 0.845898
vt 0.080355 0.796875
vt 0.130552 0.798929
vt 0.418097 0.604311
vt 0.470431 0.651833
vt 0.420191 0.651833
vt 0.228831 0.623519
vt 0.279030 0.621468
vt 0.257812 0.717456
vt 0.173180 0.825517
vt 0.137374 0.859192
vt 0.363881 0.609096
vt 0.370145 0.656250
vt 0.186202 0.650106
vt 0.257812 0.717458
vt 0.137375 0.859191
vt 0.197104 0.869696
vt 0.149337 0.881281
vt 0.113150 0.573061
vt 0.161104 0.625000
vt 0.111058 0.620583
vt 0.162276 0.694283
vt 0.257811 0.717457
vt 0.149337 0.881281
vt 0.196075 0.919926
vt 0.148822 0.906396
vt 0.058723 0.573061
vt 0.111058 0.620581
vt 0.060817 0.620581
vt 0.163302 0.744513
vt 0.148820 0.906395
vt 0.170362 0.963088
vt 0.135963 0.927976
vt 0.004508 0.577846
vt 0.010771 0.624998
vt 0.189012 0.787677
vt 0.126681 0.987910
vt 0.331901 0.948060
vt 0.379854 1.000000
vt 0.346814 0.875000
vt 0.346816 0.822592
vt 0.359375 0.822592
vt 0.140625 0.687500
vt 0.140625 0.741392
vt 0.116196 0.693354
vt 0.108424 0.775239
vt 0.054687 0.771158
vt 0.104436 0.750437
vt 0.054687 0.771158
vt 0.089640 0.730137
vt 0.054688 0.771158
vt 0.067249 0.718750
vt 0.042127 0.718750
vt 0.019734 0.730138
vt 0.004938 0.750438
vt 0.004938 0.750438
vt 0.000951 0.775240
vt 0.062405 0.672311
vt 0.012655 0.693032
vt 0.047607 0.652012
vt 0.012655 0.693032
vt 0.025216 0.640625
vt 0.012655 0.693033
vt 0.000095 0.640625
vt 0.488151 0.823061
vt 0.435817 0.775541
vt 0.486058 0.775541
vt 0.433725 0.823061
vt 0.377415 0.780326
vt 0.427462 0.775909
vt 0.528836 0.561576
vt 0.472525 0.604311
vt 0.420191 0.556789
vt 0.470431 0.556789
vt 0.418097 0.604311
vt 0.361789 0.561574
vt 0.411835 0.557157
vt 0.167366 0.577846
vt 0.119414 0.525907
vt 0.169460 0.530324
vt 0.060817 0.525539
vt 0.111058 0.525539
vt 0.058723 0.573061
vt 0.002415 0.530324
vt 0.052461 0.525907
vt 0.386119 0.952846
vt 0.338167 0.900906
vt 0.388212 0.905325
vt 0.279567 0.900538
vt 0.329808 0.900538
vt 0.221163 0.905326
vt 0.271208 0.900908
vt 0.494413 0.775907
vt 0.544460 0.780324
vt 0.470431 0.651831
vt 0.286794 0.623519
vt 0.478790 0.557158
vt 0.087067 0.845896
vt 0.072575 0.798928
vt 0.334255 0.822592
vt 0.076410 0.852544
vt 0.495454 0.654041
vt 0.006023 0.869695
vt 0.007049 0.919925
vt 0.223258 0.952846
vt 0.090961 0.844870
vt 0.503813 0.559367
s 0
usemtl m_57ccb414-76d5-66d7-562f-1442884b2991
f 53/1/1 28/2/1 5/3/1
f 6/4/2 51/5/2 41/6/2
f 2/7/3 52/8/3 6/9/3
f 29/10/4 5/11/4 28/2/4
f 41/12/5 8/13/5 6/14/5
f 6/9/6 8/15/6 2/16/6
f 30/17/7 7/18/7 29/10/7
f 40/19/8 10/20/8 8/13/8
f 8/15/9 10/21/9 2/16/9
f 30/17/10 11/22/10 9/23/10
f 10/24/11 50/25/11 12/26/11
f 10/21/12 12/27/12 2/28/12
f 32/29/13 11/30/13 31/31/13
f 12/32/14 49/33/14 14/34/14
f 12/27/15 14/35/15 2/28/15
f 33/36/16 13/37/16 32/29/16
f 49/33/17 26/38/17 14/34/17
f 14/35/18 26/39/18 2/28/18
f 38/40/19 3/41/19 15/42/19
f 43/43/20 4/44/20 16/45/20
f 16/46/21 4/47/21 2/48/21
f 38/40/22 17/49/22 37/50/22
f 44/51/23 16/45/23 18/52/23
f 18/53/24 16/46/24 2/54/24
f 37/55/25 19/56/25 36/57/25
f 45/58/26 18/59/26 20/60/26
f 20/61/27 18/53/27 2/62/27
f 36/63/28 21/64/28 35/65/28
f 46/66/29 20/67/29 22/68/29
f 22/69/30 20/61/30 2/62/30
f 35/70/31 23/71/31 34/72/31
f 47/73/32 22/68/32 24/74/32
f 24/75/33 22/69/33 2/28/33
f 34/72/34 25/76/34 33/36/34
f 48/77/35 24/78/35 26/38/35
f 26/39/36 24/75/36 2/28/36
f 1/79/37 54/80/37 28/81/37
f 28/82/38 1/83/38 29/84/38
f 29/85/39 1/86/39 30/87/39
f 30/87/40 1/88/40 31/89/40
f 31/89/41 1/90/41 32/91/41
f 32/91/42 1/90/42 33/92/42
f 33/92/43 1/90/43 34/93/43
f 34/93/44 1/90/44 35/94/44
f 35/95/45 1/90/45 36/96/45
f 36/97/46 1/98/46 37/99/46
f 37/99/47 1/100/47 38/101/47
f 38/101/48 1/102/48 27/103/48
f 39/104/49 7/105/49 9/106/49
f 40/107/50 5/108/50 7/109/50
f 51/5/51 5/110/51 41/6/51
f 42/111/52 15/112/52 3/113/52
f 43/114/53 17/115/53 15/116/53
f 44/117/54 19/118/54 17/119/54
f 45/58/55 21/120/55 19/121/55
f 46/122/56 23/123/56 21/124/56
f 47/125/57 25/126/57 23/127/57
f 48/77/58 13/128/58 25/129/58
f 49/33/59 11/130/59 13/131/59
f 50/25/60 9/132/60 11/133/60
f 51/5/2 4/134/2 42/111/2
f 4/135/3 52/8/3 2/7/3
f 3/136/51 51/5/51 42/111/51
f 27/137/1 53/1/1 3/138/1
f 27/139/37 54/80/37 1/79/37
f 53/1/1 54/140/1 28/2/1
f 6/4/2 52/141/2 51/5/2
f 29/10/4 7/142/4 5/11/4
f 41/12/5 40/107/5 8/13/5
f 30/17/7 9/143/7 7/18/7
f 40/19/8 39/104/8 10/20/8
f 30/17/10 31/31/10 11/22/10
f 10/24/11 39/104/11 50/25/11
f 32/29/13 13/37/13 11/30/13
f 12/32/14 50/144/14 49/33/14
f 33/36/16 25/76/16 13/37/16
f 49/33/17 48/77/17 26/38/17
f 38/40/19 27/145/19 3/41/19
f 43/43/20 42/111/20 4/44/20
f 38/40/22 15/42/22 17/49/22
f 44/51/23 43/114/23 16/45/23
f 37/55/25 17/49/25 19/56/25
f 45/58/26 44/117/26 18/59/26
f 36/63/28 19/56/28 21/64/28
f 46/66/29 45/58/29 20/67/29
f 35/70/31 21/64/31 23/71/31
f 47/73/32 46/122/32 22/68/32
f 34/72/34 23/71/34 25/76/34
f 48/77/35 47/125/35 24/78/35
f 39/104/49 40/19/49 7/105/49
f 40/107/50 41/12/50 5/108/50
f 51/5/51 53/146/51 5/110/51
f 42/111/52 43/43/52 15/112/52
f 43/114/53 44/51/53 17/115/53
f 44/117/54 45/58/54 19/118/54
f 45/58/55 46/66/55 21/120/55
f 46/122/56 47/73/56 23/123/56
f 47/125/57 48/77/57 25/126/57
f 48/77/58 49/33/58 13/128/58
f 49/33/59 50/144/59 11/130/59
f 50/25/60 39/104/60 9/132/60
f 51/5/2 52/141/2 4/134/2
f 3/136/51 53/146/51 51/5/51
f 27/137/1 54/140/1 53/1/1
o cylinder.001
v 0.187500 0.000000 -0.000000
v -0.250000 0.000000 -0.000000
v 0.187500 0.041867 0.156250
v -0.250000 0.041867 0.156250
v 0.187500 0.114383 0.114383
v -0.250000 0.114383 0.114383
v 0.187500 0.156250 0.041867
v -0.250000 0.156250 0.041867
v 0.187500 0.156250 -0.041867
v -0.250000 0.156250 -0.041867
v 0.187500 0.114383 -0.114383
v -0.250000 0.114383 -0.114383
v 0.187500 0.041867 -0.156250
v -0.250000 0.041867 -0.156250
v 0.187500 -0.041867 -0.156250
v -0.250000 -0.041867 -0.156250
v 0.187500 -0.114383 -0.114383
v -0.250000 -0.114383 -0.114383
v 0.187500 -0.156250 -0.041867
v -0.250000 -0.156250 -0.041867
v 0.187500 -0.156250 0.041867
v -0.250000 -0.156250 0.041867
v 0.187500 -0.114383 0.114383
v -0.250000 -0.114383 0.114383
v 0.187500 -0.041867 0.156250
v -0.250000 -0.041867 0.156250
vn 1.0000 -0.0000 -0.0000
vn -0.0000 0.5000 0.8660
vn -1.0000 -0.0000 -0.0000
vn -0.0000 0.8660 0.5000
vn -0.0000 1.0000 -0.0000
vn -0.0000 0.8660 -0.5000
vn -0.0000 0.5000 -0.8660
vn -0.0000 -0.0000 -1.0000
vn -0.0000 -0.5000 -0.8660
vn -0.0000 -0.8660 -0.5000
vn -0.0000 -1.0000 -0.0000
vn -0.0000 -0.8660 0.5000
vn -0.0000 -0.5000 0.8660
vn -0.0000 -0.0000 1.0000
vt 0.510316 0.979066
vt 0.474059 1.000000
vt 0.453125 0.921875
vt 0.320616 0.531250
vt 0.278747 0.750000
vt 0.278747 0.531250
vt 0.474059 0.656250
vt 0.510316 0.677184
vt 0.453125 0.734375
vt 0.531250 0.942809
vt 0.049378 0.781250
vt 0.007509 1.000000
vt 0.007509 0.781250
vt 0.531250 0.713441
vt 0.531250 0.900941
vt 0.091247 0.781250
vt 0.049378 1.000000
vt 0.531250 0.755309
vt 0.510316 0.864684
vt 0.133116 0.781250
vt 0.091247 1.000000
vt 0.510316 0.791566
vt 0.474059 0.843750
vt 0.049378 0.531250
vt 0.007509 0.750000
vt 0.007509 0.531250
vt 0.474059 0.812500
vt 0.432191 0.843750
vt 0.091247 0.531250
vt 0.049378 0.750000
vt 0.432191 0.812500
vt 0.395934 0.864684
vt 0.133116 0.531250
vt 0.091247 0.750000
vt 0.395934 0.791566
vt 0.375000 0.900941
vt 0.236878 0.781250
vt 0.195009 1.000000
vt 0.195009 0.781250
vt 0.375000 0.755309
vt 0.375000 0.942809
vt 0.278747 0.781250
vt 0.236878 1.000000
vt 0.375000 0.713441
vt 0.395934 0.979066
vt 0.320616 0.781250
vt 0.278747 1.000000
vt 0.395934 0.677184
vt 0.432191 1.000000
vt 0.236878 0.531250
vt 0.195009 0.750000
vt 0.195009 0.531250
vt 0.432191 0.656250
vt 0.236878 0.750000
vt 0.320616 0.750000
vt 0.133116 1.000000
vt 0.133116 0.750000
vt 0.320616 1.000000
s 0
usemtl m_6a2c3701-fc6e-1d67-0b50-54c410ad0af6
f 59/147/61 57/148/61 55/149/61
f 59/150/62 58/151/62 57/152/62
f 58/153/63 60/154/63 56/155/63
f 61/156/61 59/147/61 55/149/61
f 61/157/64 60/158/64 59/159/64
f 60/154/63 62/160/63 56/155/63
f 63/161/61 61/156/61 55/149/61
f 63/162/65 62/163/65 61/157/65
f 62/160/63 64/164/63 56/155/63
f 65/165/61 63/161/61 55/149/61
f 65/166/66 64/167/66 63/162/66
f 64/164/63 66/168/63 56/155/63
f 67/169/61 65/165/61 55/149/61
f 67/170/67 66/171/67 65/172/67
f 66/168/63 68/173/63 56/155/63
f 69/174/61 67/169/61 55/149/61
f 69/175/68 68/176/68 67/170/68
f 68/173/63 70/177/63 56/155/63
f 71/178/61 69/174/61 55/149/61
f 71/179/69 70/180/69 69/175/69
f 70/177/63 72/181/63 56/155/63
f 73/182/61 71/178/61 55/149/61
f 73/183/70 72/184/70 71/185/70
f 72/181/63 74/186/63 56/155/63
f 75/187/61 73/182/61 55/149/61
f 75/188/71 74/189/71 73/183/71
f 74/186/63 76/190/63 56/155/63
f 77/191/61 75/187/61 55/149/61
f 77/192/72 76/193/72 75/188/72
f 76/190/63 78/194/63 56/155/63
f 79/195/61 77/191/61 55/149/61
f 79/196/73 78/197/73 77/198/73
f 78/194/63 80/199/63 56/155/63
f 57/148/61 79/195/61 55/149/61
f 57/152/74 80/200/74 79/196/74
f 80/199/63 58/153/63 56/155/63
f 59/150/62 60/201/62 58/151/62
f 61/157/64 62/163/64 60/158/64
f 63/162/65 64/167/65 62/163/65
f 65/166/66 66/202/66 64/167/66
f 67/170/67 68/176/67 66/171/67
f 69/175/68 70/180/68 68/176/68
f 71/179/69 72/203/69 70/180/69
f 73/183/70 74/189/70 72/184/70
f 75/188/71 76/193/71 74/189/71
f 77/192/72 78/204/72 76/193/72
f 79/196/73 80/200/73 78/197/73
f 57/152/74 58/151/74 80/200/74
