# Made in Blockbench 4.8.3
mtllib Gas.mtl

o cuboid
v 0.0625 0.5 0.21875
v 0.0625 0.5 -0.15625
v 0.0625 0 0.21875
v 0.0625 0 -0.21875
v -0.0625 0.5 0.21875
v -0.0625 0.5 -0.15625
v -0.0625 0 0.21875
v -0.0625 0 -0.21875
v -0.0625 0.4375 0.21875
v -0.0625 0.4375 -0.21875
v 0.0625 0.4375 -0.21875
v 0.0625 0.4375 0.21875
v -0.0625 0.4375 -0.125
v -0.0625 0.5 -0.125
v 0.0625 0.5 -0.125
v 0.0625 0.4375 -0.125
v 0.0625 0 -0.125
v -0.0625 0 -0.125
vt 0 0.96875
vt 0.171875 0.96875
vt 0.171875 1
vt 0 1
vt 0.46875 1
vt 0.296875 1
vt 0.296875 0.96875
vt 0.46875 0.96875
vt 0.34375 0.53125
vt 0.34375 0.703125
vt 0.28125 0.703125
vt 0.28125 0.53125
vt 0.09375 0.71875
vt 0.09375 0.546875
vt 0.15625 0.546875
vt 0.15625 0.71875
vt 0 0.71875
vt 0 0.6875
vt 0.0625 0.6875
vt 0.0625 0.71875
vt 0.375 0.71875
vt 0.375 0.6875
vt 0.4375 0.6875
vt 0.4375 0.71875
vt 0.46875 0.96875
vt 0.296875 0.96875
vt 0.296875 0.75
vt 0.46875 0.75
vt 0.25 0.5
vt 0.25 0.71875
vt 0.1875 0.71875
vt 0.1875 0.5
vt 0 0.75
vt 0.171875 0.75
vt 0.171875 0.96875
vt 0 0.96875
vt 0.0625 0.46875
vt 0.0625 0.6875
vt 0 0.6875
vt 0 0.46875
vt 0.25 0.96875
vt 0.296875 0.96875
vt 0.296875 1
vt 0.28125 1
vt 0.28125 0.71875
vt 0.28125 0.703125
vt 0.34375 0.703125
vt 0.34375 0.71875
vt 0.1875 1
vt 0.171875 1
vt 0.171875 0.96875
vt 0.21875 0.96875
vt 0.21875 0.96875
vt 0.171875 0.96875
vt 0.171875 0.75
vt 0.21875 0.75
vt 0.15625 0.5
vt 0.15625 0.546875
vt 0.09375 0.546875
vt 0.09375 0.5
vt 0.25 0.75
vt 0.296875 0.75
vt 0.296875 0.96875
vt 0.25 0.96875
vn 1 0 0
vn -1 0 0
vn 0 1 0
vn 0 -1 0
vn 0 0 1
vn 0 0.7071067811865476 -0.7071067811865476
vn -1 0 0
vn 0 0 -1
vn 1 0 0
vn 0 0 1
vn -1 0 0
vn 0 1 0
vn 1 0 0
vn 1 0 0
vn 0 -1 0
vn -1 0 0
usemtl m_67b76c95-5105-9f32-9fef-2220fe6115e0
f 12/1/1 16/2/1 15/3/1 1/4/1
f 5/5/2 14/6/2 13/7/2 9/8/2
f 1/9/3 15/10/3 14/11/3 5/12/3
f 7/13/4 18/14/4 17/15/4 3/16/4
f 5/17/5 9/18/5 12/19/5 1/20/5
f 2/21/6 11/22/6 10/23/6 6/24/6
f 9/25/7 13/26/7 18/27/7 7/28/7
f 8/29/8 10/30/8 11/31/8 4/32/8
f 3/33/9 17/34/9 16/35/9 12/36/9
f 3/37/10 12/38/10 9/39/10 7/40/10
f 10/41/11 13/42/11 14/43/11 6/44/11
f 6/45/12 14/46/12 15/47/12 2/48/12
f 2/49/13 15/50/13 16/51/13 11/52/13
f 11/53/14 16/54/14 17/55/14 4/56/14
f 4/57/15 17/58/15 18/59/15 8/60/15
f 8/61/16 18/62/16 13/63/16 10/64/16