# Made in Blockbench 4.8.3
mtllib Health.mtl

o cuboid
v 0.1875 0.5 0.0625
v 0.1875 0.5 -0.0625
v 0.1875 0 0.0625
v 0.1875 0 -0.0625
v -0.1875 0.5 0.0625
v -0.1875 0.5 -0.0625
v -0.1875 0 0.0625
v -0.1875 0 -0.0625
vt 0.0625 0.71875
vt 0 0.71875
vt 0 0.46875
vt 0.0625 0.46875
vt 0.15625 0.46875
vt 0.15625 0.71875
vt 0.09375 0.71875
vt 0.09375 0.46875
vt 0.1875 0.65625
vt 0.375 0.65625
vt 0.375 0.71875
vt 0.1875 0.71875
vt 0.375 0.5625
vt 0.375 0.625
vt 0.1875 0.625
vt 0.1875 0.5625
vt 0.1875 0.75
vt 0.1875 1
vt 0 1
vt 0 0.75
vt 0.40625 1
vt 0.21875 1
vt 0.21875 0.75
vt 0.40625 0.75
vn 1 0 0
vn -1 0 0
vn 0 1 0
vn 0 -1 0
vn 0 0 1
vn 0 0 -1
usemtl m_20a8ef97-b716-2530-a075-e07d2fbcb56d
f 2/1/1 1/2/1 3/3/1 4/4/1
f 7/5/2 5/6/2 6/7/2 8/8/2
f 5/9/3 1/10/3 2/11/3 6/12/3
f 4/13/4 3/14/4 7/15/4 8/16/4
f 3/17/5 1/18/5 5/19/5 7/20/5
f 6/21/6 2/22/6 4/23/6 8/24/6