# Made in Blockbench 4.8.3
mtllib Rock2.mtl

o cylinder
v 0.018602448096084908 -0.06249999999999997 -0.2041142358900468
v 0.018602448096084908 0.12500000000000003 -0.2041142358900468
v 0.2273652149112916 -0.06249999999999997 0.12818066579746887
v 0.2273652149112916 0.12500000000000003 0.12818066579746887
v 0.35638770038855805 -0.06249999999999997 -0.33103959404637295
v 0.35638770038855805 0.06250000000000003 -0.33103959404637295
v 0.01860244809608495 -0.06249999999999997 -0.6148533229524258
v 0.01860244809608495 0.12500000000000003 -0.6148533229524258
v -0.3191828041963882 -0.06249999999999997 -0.33103959404637306
v -0.3191828041963882 0.06250000000000003 -0.33103959404637306
v -0.1901603187191219 -0.06249999999999997 0.12818066579746887
v -0.1901603187191219 0.12500000000000003 0.12818066579746887
vt 0.40475937500000003 0.883453125
vt 0.372503125 0.9982578125
vt 0.3203125 0.915184375
vt 0.421875 0.8125
vt 0.546875 0.8125
vt 0.546875 0.84375
vt 0.421875 0.859375
vt 0.278753125 0.6579955995958395
vt 0.3121689364213255 0.7735294508403234
vt 0.22656226814652775 0.7410694061442067
vt 0.3203125 0.8125
vt 0.40475937500000003 0.883453125
vt 0.3203125 0.915184375
vt 0.453125 0.75
vt 0.5625 0.75
vt 0.5625 0.796875
vt 0.453125 0.78125
vt 0.0028944082795557685 0.6239633639398021
vt 0.11429309172044423 0.623963363939802
vt 0.04889036818836656 0.703125
vt 0.235865625 0.883453125
vt 0.3203125 0.8125
vt 0.3203125 0.915184375
vt 0.46875 0.6875
vt 0.578125 0.6875
vt 0.578125 0.71875
vt 0.46875 0.734375
vt 0.22743577881916738 0.84375
vt 0.14095606357867452 0.7735294508403234
vt 0.22656291975586612 0.7410693348960173
vt 0.268121875 0.9982578125
vt 0.235865625 0.883453125
vt 0.3203125 0.915184375
vt 0.421875 0.875
vt 0.546875 0.875
vt 0.546875 0.921875
vt 0.421875 0.90625
vt 0.14095606357867452 0.7735294508403234
vt 0.174371875 0.6579955995958395
vt 0.22656273185347225 0.7410694061442067
vt 0.372503125 0.9982578125
vt 0.268121875 0.9982578125
vt 0.3203125 0.915184375
vt 0.125 0.515625
vt 0.234375 0.515625
vt 0.234375 0.5625
vt 0.125 0.5625
vt 0.174371875 0.6579955995958395
vt 0.278753125 0.6579955995958395
vt 0.2265625 0.7410690370958395
vn 0 -1 0
vn 0.962723692756016 0 0.27048676752517875
vn 0.14740582915925227 0.9847311596792058 -0.09260704447675644
vn 0 -1 0
vn 0.6432905761325873 0 -0.7656221226290447
vn 0.18194058201176502 0.9833095263533352 2.45891649499243e-17
vn 0 -1 0
vn -0.6432905761325872 0 -0.7656221226290449
vn -0.181940582011765 0.9833095263533352 -1.9266763067597643e-17
vn 0 -1 0
vn -0.9627236927560162 0 0.27048676752517836
vn -0.14740582915925224 0.9847311596792058 -0.09260704447675647
vn 0 -1 0
vn 0 0 1
vn 0 1 0
usemtl m_16590f1e-8239-ff19-5798-5b56c0249f96
f 5/1/1 3/2/1 1/3/1
f 3/4/2 5/5/2 6/6/2 4/7/2
f 4/8/3 6/9/3 2/10/3
f 7/11/4 5/12/4 1/13/4
f 5/14/5 7/15/5 8/16/5 6/17/5
f 6/18/6 8/19/6 2/20/6
f 9/21/7 7/22/7 1/23/7
f 7/24/8 9/25/8 10/26/8 8/27/8
f 8/28/9 10/29/9 2/30/9
f 11/31/10 9/32/10 1/33/10
f 9/34/11 11/35/11 12/36/11 10/37/11
f 10/38/12 12/39/12 2/40/12
f 3/41/13 11/42/13 1/43/13
f 11/44/14 3/45/14 4/46/14 12/47/14
f 12/48/15 4/49/15 2/50/15
o cylinder
v 0.018602448096084908 -0.06249999999999997 0.04588576410995321
v 0.018602448096084908 0.25 0.04588576410995321
v 0.2273652149112916 -0.06249999999999997 0.3781806657974689
v 0.2273652149112916 0.18750000000000003 0.3781806657974689
v 0.35638770038855805 -0.06249999999999997 -0.08103959404637298
v 0.35638770038855805 0.18750000000000003 -0.08103959404637298
v 0.01860244809608495 -0.06249999999999997 -0.3648533229524258
v 0.01860244809608495 0.18750000000000003 -0.3648533229524258
v -0.3191828041963882 -0.06249999999999997 -0.08103959404637306
v -0.3191828041963882 0.25 -0.08103959404637306
v -0.1901603187191219 -0.06249999999999997 0.3781806657974689
v -0.1901603187191219 0.12500000000000003 0.3781806657974689
vt 0.46725937500000003 0.586578125
vt 0.435003125 0.7013828125
vt 0.3828125 0.6183093749999999
vt 0.140625 0.578125
vt 0.265625 0.578125
vt 0.265625 0.640625
vt 0.140625 0.640625
vt 0.000260997031743343 0.9562420610192242
vt 0.013322211145047003 0.8377095035259917
vt 0.0814019811978022 0.8989250601472837
vt 0.3828125 0.515625
vt 0.46725937500000003 0.586578125
vt 0.3828125 0.6183093749999999
vt 0.421875 0.9375
vt 0.53125 0.9375
vt 0.53125 1
vt 0.421875 1
vt 0.013322211145046989 0.8377095035259917
vt 0.11752181546825666 0.8015406249999999
vt 0.0814027775741252 0.898925776228138
vt 0.29836562499999997 0.586578125
vt 0.3828125 0.515625
vt 0.3828125 0.6183093749999999
vt 0.328125 0.71875
vt 0.4375 0.71875
vt 0.4375 0.796875
vt 0.328125 0.78125
vt 0.11752181546825666 0.8015406249999999
vt 0.17161400296825666 0.898925
vt 0.08140306546825665 0.898925
vt 0.330621875 0.7013828125
vt 0.29836562499999997 0.586578125
vt 0.3828125 0.6183093749999999
vt 0 0.71875
vt 0.125 0.71875
vt 0.125 0.765625
vt 0 0.796875
vt 0.17161400296825666 0.898925
vt 0.10103744046825668 1
vt 0.08140306546825665 0.898925
vt 0.435003125 0.7013828125
vt 0.330621875 0.7013828125
vt 0.3828125 0.6183093749999999
vt 0 0.53125
vt 0.109375 0.53125
vt 0.109375 0.59375
vt 0 0.578125
vt 0.10103744046825668 1
vt 0.0032583935300414535 0.9602649345828906
vt 0.08140287666691065 0.8989240280772346
vn 0 -1 0
vn 0.962723692756016 0 0.27048676752517875
vn 0.20225191674706613 0.9776835468328753 0.056824681472288016
vn 0 -1 0
vn 0.6432905761325873 0 -0.7656221226290446
vn 0.12539909893675213 0.9808163946558021 -0.1492456564200276
vn 0 -1 0
vn -0.6432905761325872 0 -0.7656221226290448
vn 0.05643628816495432 0.9870445280750706 -0.15019335862555244
vn 0 -1 0
vn -0.9627236927560162 0 0.27048676752517836
vn -0.10875127554402375 0.951004707584314 0.2894187385433458
vn 0 -1 0
vn 0 0 1
vn -0.1425953430340383 0.9525951470959795 0.26875463507480984
usemtl m_16590f1e-8239-ff19-5798-5b56c0249f96
f 17/51/16 15/52/16 13/53/16
f 15/54/17 17/55/17 18/56/17 16/57/17
f 16/58/18 18/59/18 14/60/18
f 19/61/19 17/62/19 13/63/19
f 17/64/20 19/65/20 20/66/20 18/67/20
f 18/68/21 20/69/21 14/70/21
f 21/71/22 19/72/22 13/73/22
f 19/74/23 21/75/23 22/76/23 20/77/23
f 20/78/24 22/79/24 14/80/24
f 23/81/25 21/82/25 13/83/25
f 21/84/26 23/85/26 24/86/26 22/87/26
f 22/88/27 24/89/27 14/90/27
f 15/91/28 23/92/28 13/93/28
f 23/94/29 15/95/29 16/96/29 24/97/29
f 24/98/30 16/99/30 14/100/30