# Made in Blockbench 4.8.3
mtllib Store.mtl

o cuboid
v 4.75 11.375 4.3125
v 4.75 11.375 -4.3125
v 4.0625 0.25 3.75
v 4.0625 0.25 -3.75
v -4.75 11.375 4.3125
v -4.75 11.375 -4.3125
v -4.0625 0.25 3.75
v -4.0625 0.25 -3.75
vt 0.52734375 0.650390625
vt 0.392578125 0.650390625
vt 0.4013671875 0.4765625
vt 0.5185546875 0.4765625
vt 0.1259765625 0.34765625
vt 0.134765625 0.521484375
vt 0 0.521484375
vt 0.0087890625 0.34765625
vt 0.1357421875 0.38671875
vt 0.2841796875 0.38671875
vt 0.2841796875 0.521484375
vt 0.1357421875 0.521484375
vt 0.6474609375 0.376953125
vt 0.6474609375 0.494140625
vt 0.5205078125 0.494140625
vt 0.5205078125 0.376953125
vt 0.5302734375 0.826171875
vt 0.541015625 1
vt 0.392578125 1
vt 0.4033203125 0.826171875
vt 0.541015625 0.8251953125
vt 0.392578125 0.8251953125
vt 0.4033203125 0.6513671875
vt 0.5302734375 0.6513671875
vn 0.9980959707036144 -0.06168008807718966 0
vn -0.9980959707036144 -0.06168008807718966 0
vn 0 1 0
vn 0 -1 0
vn 0 -0.05049729090859735 0.9987241979700364
vn 0 -0.05049729090859735 -0.9987241979700364
usemtl m_505d60bc-1815-2dc2-6721-c4d75db948e9
f 2/1/1 1/2/1 3/3/1 4/4/1
f 7/5/2 5/6/2 6/7/2 8/8/2
f 5/9/3 1/10/3 2/11/3 6/12/3
f 4/13/4 3/14/4 7/15/4 8/16/4
f 3/17/5 1/18/5 5/19/5 7/20/5
f 6/21/6 2/22/6 4/23/6 8/24/6
o cuboid
v 6.25 0.5 6.25
v 6.25 0.5 -6.25
v 6.25 0 6.25
v 6.25 0 -6.25
v -6.25 0.5 6.25
v -6.25 0.5 -6.25
v -6.25 0 6.25
v -6.25 0 -6.25
vt 0.720703125 0.580078125
vt 0.525390625 0.580078125
vt 0.525390625 0.572265625
vt 0.720703125 0.572265625
vt 0.7275390625 0.830078125
vt 0.7275390625 0.837890625
vt 0.5322265625 0.837890625
vt 0.5322265625 0.830078125
vt 0 0.5224609375
vt 0.1953125 0.5224609375
vt 0.1953125 0.7177734375
vt 0 0.7177734375
vt 0.3916015625 0.5224609375
vt 0.3916015625 0.7177734375
vt 0.1962890625 0.7177734375
vt 0.1962890625 0.5224609375
vt 0.7275390625 0.6552734375
vt 0.7275390625 0.6630859375
vt 0.5322265625 0.6630859375
vt 0.5322265625 0.6552734375
vt 0.7314453125 0.9033203125
vt 0.5361328125 0.9033203125
vt 0.5361328125 0.8955078125
vt 0.7314453125 0.8955078125
vn 1 0 0
vn -1 0 0
vn 0 1 0
vn 0 -1 0
vn 0 0 1
vn 0 0 -1
usemtl m_505d60bc-1815-2dc2-6721-c4d75db948e9
f 10/25/7 9/26/7 11/27/7 12/28/7
f 15/29/8 13/30/8 14/31/8 16/32/8
f 13/33/9 9/34/9 10/35/9 14/36/9
f 12/37/10 11/38/10 15/39/10 16/40/10
f 11/41/11 9/42/11 13/43/11 15/44/11
f 14/45/12 10/46/12 12/47/12 16/48/12
o cuboid
v 6.25 5.40625 5.4375
v 6.25 5.40625 -12.5625
v 6.25 5.21875 5.4375
v 6.25 5.21875 -12.5625
v -6.25 5.40625 5.4375
v -6.25 5.40625 -12.5625
v -6.25 5.21875 5.4375
v -6.25 5.21875 -12.5625
vt 0.802734375 0.5009765625
vt 0.521484375 0.5009765625
vt 0.521484375 0.498046875
vt 0.802734375 0.498046875
vt 0.8134765625 0.6513671875
vt 0.8134765625 0.654296875
vt 0.5322265625 0.654296875
vt 0.5322265625 0.6513671875
vt 0 0.71875
vt 0.1953125 0.71875
vt 0.1953125 1
vt 0 1
vt 0.3916015625 0.71875
vt 0.3916015625 1
vt 0.1962890625 1
vt 0.1962890625 0.71875
vt 0.7314453125 0.8916015625
vt 0.7314453125 0.89453125
vt 0.5361328125 0.89453125
vt 0.5361328125 0.8916015625
vt 0.7314453125 0.720703125
vt 0.5361328125 0.720703125
vt 0.5361328125 0.7177734375
vt 0.7314453125 0.7177734375
vn 1 0 0
vn -1 0 0
vn 0 1 0
vn 0 -1 0
vn 0 0 1
vn 0 0 -1
usemtl m_505d60bc-1815-2dc2-6721-c4d75db948e9
f 18/49/13 17/50/13 19/51/13 20/52/13
f 23/53/14 21/54/14 22/55/14 24/56/14
f 21/57/15 17/58/15 18/59/15 22/60/15
f 20/61/16 19/62/16 23/63/16 24/64/16
f 19/65/17 17/66/17 21/67/17 23/68/17
f 22/69/18 18/70/18 20/71/18 24/72/18
o cuboid
v 1.5625 4.78125 -1.25
v 1.5625 4.78125 -4.375
v 1.5625 0.34375 -1.25
v 1.5625 0.34375 -4.375
v -1.5625 4.78125 -1.25
v -1.5625 4.78125 -4.375
v -1.5625 0.34375 -1.25
v -1.5625 0.34375 -4.375
vt 0.443359375 0.4755859375
vt 0.39453125 0.4755859375
vt 0.39453125 0.40625
vt 0.443359375 0.40625
vt 0.5732421875 0.501953125
vt 0.5732421875 0.5712890625
vt 0.5244140625 0.5712890625
vt 0.5244140625 0.501953125
vt 0.53515625 0.8388671875
vt 0.583984375 0.8388671875
vt 0.583984375 0.8876953125
vt 0.53515625 0.8876953125
vt 0.583984375 0.6640625
vt 0.583984375 0.712890625
vt 0.53515625 0.712890625
vt 0.53515625 0.6640625
vt 0.4931640625 0.40625
vt 0.4931640625 0.4755859375
vt 0.4443359375 0.4755859375
vt 0.4443359375 0.40625
vt 0.5771484375 0.650390625
vt 0.5283203125 0.650390625
vt 0.5283203125 0.5810546875
vt 0.5771484375 0.5810546875
vn 1 0 0
vn -1 0 0
vn 0 1 0
vn 0 -1 0
vn 0 0 1
vn 0 0 -1
usemtl m_505d60bc-1815-2dc2-6721-c4d75db948e9
f 26/73/19 25/74/19 27/75/19 28/76/19
f 31/77/20 29/78/20 30/79/20 32/80/20
f 29/81/21 25/82/21 26/83/21 30/84/21
f 28/85/22 27/86/22 31/87/22 32/88/22
f 27/89/23 25/90/23 29/91/23 31/92/23
f 30/93/24 26/94/24 28/95/24 32/96/24
o cuboid
v 4.4375 1.34375 -3.625
v 4.4375 1.34375 -5.25
v 4.4375 0.40625 -3.625
v 4.4375 0.40625 -5.25
v 2.1875 1.34375 -3.625
v 2.1875 1.34375 -5.25
v 2.1875 0.40625 -3.625
v 2.1875 0.40625 -5.25
vt 0.603515625 0.8291015625
vt 0.578125 0.8291015625
vt 0.578125 0.814453125
vt 0.603515625 0.814453125
vt 0.603515625 0.6357421875
vt 0.603515625 0.650390625
vt 0.578125 0.650390625
vt 0.578125 0.6357421875
vt 0.5400390625 0.7666015625
vt 0.5751953125 0.7666015625
vt 0.5751953125 0.7919921875
vt 0.5400390625 0.7919921875
vt 0.576171875 0.95703125
vt 0.576171875 0.982421875
vt 0.541015625 0.982421875
vt 0.541015625 0.95703125
vt 0.609375 0.5146484375
vt 0.609375 0.529296875
vt 0.57421875 0.529296875
vt 0.57421875 0.5146484375
vt 0.6103515625 0.9560546875
vt 0.5751953125 0.9560546875
vt 0.5751953125 0.94140625
vt 0.6103515625 0.94140625
vn 1 0 0
vn -1 0 0
vn 0 1 0
vn 0 -1 0
vn 0 0 1
vn 0 0 -1
usemtl m_505d60bc-1815-2dc2-6721-c4d75db948e9
f 34/97/25 33/98/25 35/99/25 36/100/25
f 39/101/26 37/102/26 38/103/26 40/104/26
f 37/105/27 33/106/27 34/107/27 38/108/27
f 36/109/28 35/110/28 39/111/28 40/112/28
f 35/113/29 33/114/29 37/115/29 39/116/29
f 38/117/30 34/118/30 36/119/30 40/120/30
o cuboid
v 3.9165662732455595 1.34375 -0.5965074410897081
v 5.486195740965296 1.34375 -1.0170883893813043
v 3.9165662732455595 0.40625 -0.5965074410897081
v 5.486195740965296 0.40625 -1.0170883893813043
v 3.3342234217648876 1.34375 -2.7698405502401116
v 4.903852889484624 1.34375 -3.190421498531708
v 3.3342234217648876 0.40625 -2.7698405502401116
v 4.903852889484624 0.40625 -3.190421498531708
vt 0.603515625 0.634765625
vt 0.578125 0.634765625
vt 0.578125 0.6201171875
vt 0.603515625 0.6201171875
vt 0.603515625 0.6044921875
vt 0.603515625 0.619140625
vt 0.578125 0.619140625
vt 0.578125 0.6044921875
vt 0.5419921875 0.8037109375
vt 0.5771484375 0.8037109375
vt 0.5771484375 0.8291015625
vt 0.5419921875 0.8291015625
vt 0.3203125 0.4169921875
vt 0.3203125 0.4423828125
vt 0.28515625 0.4423828125
vt 0.28515625 0.4169921875
vt 0.6103515625 0.92578125
vt 0.6103515625 0.9404296875
vt 0.5751953125 0.9404296875
vt 0.5751953125 0.92578125
vt 0.611328125 0.7919921875
vt 0.576171875 0.7919921875
vt 0.576171875 0.77734375
vt 0.611328125 0.77734375
vn 0.25881904510252074 0 0.9659258262890683
vn -0.25881904510252074 0 -0.9659258262890683
vn 0 1 0
vn 0 -1 0
vn -0.9659258262890683 0 0.25881904510252074
vn 0.9659258262890683 0 -0.25881904510252074
usemtl m_505d60bc-1815-2dc2-6721-c4d75db948e9
f 42/121/31 41/122/31 43/123/31 44/124/31
f 47/125/32 45/126/32 46/127/32 48/128/32
f 45/129/33 41/130/33 42/131/33 46/132/33
f 44/133/34 43/134/34 47/135/34 48/136/34
f 43/137/35 41/138/35 45/139/35 47/140/35
f 46/141/36 42/142/36 44/143/36 48/144/36
o cuboid
v 8.577396713666245 0.96875 -2.781293019254894
v 9.984687994815959 0.96875 -1.9687930192548944
v 8.577396713666245 0.031249999999999944 -2.781293019254894
v 9.984687994815959 0.031249999999999944 -1.9687930192548944
v 9.702396713666245 0.96875 -4.729850177769881
v 11.109687994815959 0.96875 -3.917350177769882
v 9.702396713666245 0.031249999999999944 -4.729850177769881
v 11.109687994815959 0.031249999999999944 -3.917350177769882
vt 0.603515625 0.603515625
vt 0.578125 0.603515625
vt 0.578125 0.5888671875
vt 0.603515625 0.5888671875
vt 0.330078125 0.4013671875
vt 0.330078125 0.416015625
vt 0.3046875 0.416015625
vt 0.3046875 0.4013671875
vt 0.3212890625 0.4169921875
vt 0.3564453125 0.4169921875
vt 0.3564453125 0.4423828125
vt 0.3212890625 0.4423828125
vt 0.392578125 0.4169921875
vt 0.392578125 0.4423828125
vt 0.357421875 0.4423828125
vt 0.357421875 0.4169921875
vt 0.6123046875 0.974609375
vt 0.6123046875 0.9892578125
vt 0.5771484375 0.9892578125
vt 0.5771484375 0.974609375
vt 0.6123046875 0.9736328125
vt 0.5771484375 0.9736328125
vt 0.5771484375 0.958984375
vt 0.6123046875 0.958984375
vn -0.4999999999999998 0 0.8660254037844388
vn 0.4999999999999998 0 -0.8660254037844388
vn 0 1 0
vn 0 -1 0
vn -0.8660254037844388 0 -0.4999999999999998
vn 0.8660254037844388 0 0.4999999999999998
usemtl m_505d60bc-1815-2dc2-6721-c4d75db948e9
f 50/145/37 49/146/37 51/147/37 52/148/37
f 55/149/38 53/150/38 54/151/38 56/152/38
f 53/153/39 49/154/39 50/155/39 54/156/39
f 52/157/40 51/158/40 55/159/40 56/160/40
f 51/161/41 49/162/41 53/163/41 55/164/41
f 54/165/42 50/166/42 52/167/42 56/168/42
o cuboid
v -8.385723494642667 0.34375000000000006 -2.7009165470824446
v -6.189057478622817 0.34375000000000006 -3.187905678443176
v -8.385723494642667 -0.09374999999999994 -2.7009165470824446
v -6.189057478622817 -0.09374999999999994 -3.187905678443176
v -8.872712626003398 0.34375000000000006 -4.8975825631022945
v -6.676046609983549 0.34375000000000006 -5.384571694463026
v -8.872712626003398 -0.09374999999999994 -4.8975825631022945
v -6.676046609983549 -0.09374999999999994 -5.384571694463026
vt 0.609375 0.513671875
vt 0.57421875 0.513671875
vt 0.57421875 0.5068359375
vt 0.609375 0.5068359375
vt 0.6103515625 0.91796875
vt 0.6103515625 0.9248046875
vt 0.5751953125 0.9248046875
vt 0.5751953125 0.91796875
vt 0.5380859375 0.7255859375
vt 0.5732421875 0.7255859375
vt 0.5732421875 0.7607421875
vt 0.5380859375 0.7607421875
vt 0.57421875 0.916015625
vt 0.57421875 0.951171875
vt 0.5390625 0.951171875
vt 0.5390625 0.916015625
vt 0.611328125 0.76953125
vt 0.611328125 0.7763671875
vt 0.576171875 0.7763671875
vt 0.576171875 0.76953125
vt 0.61328125 0.8134765625
vt 0.578125 0.8134765625
vt 0.578125 0.806640625
vt 0.61328125 0.806640625
vn 0.21643961393810307 0 0.9762960071199333
vn -0.21643961393810307 0 -0.9762960071199333
vn 0 1 0
vn 0 -1 0
vn -0.9762960071199333 0 0.21643961393810307
vn 0.9762960071199333 0 -0.21643961393810307
usemtl m_505d60bc-1815-2dc2-6721-c4d75db948e9
f 58/169/43 57/170/43 59/171/43 60/172/43
f 63/173/44 61/174/44 62/175/44 64/176/44
f 61/177/45 57/178/45 58/179/45 62/180/45
f 60/181/46 59/182/46 63/183/46 64/184/46
f 59/185/47 57/186/47 61/187/47 63/188/47
f 62/189/48 58/190/48 60/191/48 64/192/48
o cuboid
v 1.25 5.78125 -11.3125
v 1.25 5.78125 -12.6875
v 1.25 4.84375 -11.3125
v 1.25 4.84375 -12.6875
v -1.25 5.78125 -11.3125
v -1.25 5.78125 -12.6875
v -1.25 4.84375 -11.3125
v -1.25 4.84375 -12.6875
vt 0.3525390625 0.416015625
vt 0.3310546875 0.416015625
vt 0.3310546875 0.4013671875
vt 0.3525390625 0.4013671875
vt 0.375 0.4013671875
vt 0.375 0.416015625
vt 0.353515625 0.416015625
vt 0.353515625 0.4013671875
vt 0.57421875 0.744140625
vt 0.61328125 0.744140625
vt 0.61328125 0.765625
vt 0.57421875 0.765625
vt 0.61328125 0.7216796875
vt 0.61328125 0.7431640625
vt 0.57421875 0.7431640625
vt 0.57421875 0.7216796875
vt 0.61328125 0.5458984375
vt 0.61328125 0.560546875
vt 0.57421875 0.560546875
vt 0.57421875 0.5458984375
vt 0.61328125 0.544921875
vt 0.57421875 0.544921875
vt 0.57421875 0.5302734375
vt 0.61328125 0.5302734375
vn 1 0 0
vn -1 0 0
vn 0 1 0
vn 0 -1 0
vn 0 0 1
vn 0 0 -1
usemtl m_505d60bc-1815-2dc2-6721-c4d75db948e9
f 66/193/49 65/194/49 67/195/49 68/196/49
f 71/197/50 69/198/50 70/199/50 72/200/50
f 69/201/51 65/202/51 66/203/51 70/204/51
f 68/205/52 67/206/52 71/207/52 72/208/52
f 67/209/53 65/210/53 69/211/53 71/212/53
f 70/213/54 66/214/54 68/215/54 72/216/54
o cuboid
v -2.4999999999999987 0.3125 -7.843749999999999
v 2.5000000000000013 0.3125 -7.843750000000001
v -2.4999999999999987 -0.3125 -7.843749999999999
v 2.5000000000000013 -0.3125 -7.843750000000001
v -2.4999999999999987 0.3125 -8.40625
v 2.5000000000000013 0.3125 -8.40625
v -2.4999999999999987 -0.3125 -8.40625
v 2.5000000000000013 -0.3125 -8.40625
vt 0.615234375 0.9150390625
vt 0.537109375 0.9150390625
vt 0.537109375 0.9052734375
vt 0.615234375 0.9052734375
vt 0.619140625 0.79296875
vt 0.619140625 0.802734375
vt 0.541015625 0.802734375
vt 0.541015625 0.79296875
vt 0.494140625 0.3974609375
vt 0.5029296875 0.3974609375
vt 0.5029296875 0.4755859375
vt 0.494140625 0.4755859375
vt 0.5126953125 0.3974609375
vt 0.5126953125 0.4755859375
vt 0.50390625 0.4755859375
vt 0.50390625 0.3974609375
vt 0.4013671875 0.8310546875
vt 0.4013671875 0.8408203125
vt 0.392578125 0.8408203125
vt 0.392578125 0.8310546875
vt 0.4013671875 0.666015625
vt 0.392578125 0.666015625
vt 0.392578125 0.65625
vt 0.4013671875 0.65625
vn 2.220446049250313e-16 0 1
vn -2.220446049250313e-16 0 -1
vn 0 1 0
vn 0 -1 0
vn -1 0 2.220446049250313e-16
vn 1 0 -2.220446049250313e-16
usemtl m_505d60bc-1815-2dc2-6721-c4d75db948e9
f 74/217/55 73/218/55 75/219/55 76/220/55
f 79/221/56 77/222/56 78/223/56 80/224/56
f 77/225/57 73/226/57 74/227/57 78/228/57
f 76/229/58 75/230/58 79/231/58 80/232/58
f 75/233/59 73/234/59 77/235/59 79/236/59
f 78/237/60 74/238/60 76/239/60 80/240/60
o cuboid
v -2.4999999999999987 0.0625 -8.40625
v 2.5000000000000013 0.0625 -8.40625
v -2.4999999999999987 -0.0625 -8.40625
v 2.5000000000000013 -0.0625 -8.40625
v -2.4999999999999996 0.0625 -11.84375
v 2.5000000000000004 0.0625 -11.84375
v -2.4999999999999996 -0.0625 -11.84375
v 2.5000000000000004 -0.0625 -11.84375
vt 0.599609375 0.4970703125
vt 0.521484375 0.4970703125
vt 0.521484375 0.4951171875
vt 0.599609375 0.4951171875
vt 0.6142578125 0.888671875
vt 0.6142578125 0.890625
vt 0.5361328125 0.890625
vt 0.5361328125 0.888671875
vt 0.28515625 0.443359375
vt 0.3388671875 0.443359375
vt 0.3388671875 0.521484375
vt 0.28515625 0.521484375
vt 0.3935546875 0.443359375
vt 0.3935546875 0.521484375
vt 0.33984375 0.521484375
vt 0.33984375 0.443359375
vt 0.58984375 0.71484375
vt 0.58984375 0.716796875
vt 0.5361328125 0.716796875
vt 0.5361328125 0.71484375
vt 0.6279296875 0.505859375
vt 0.57421875 0.505859375
vt 0.57421875 0.50390625
vt 0.6279296875 0.50390625
vn 2.220446049250313e-16 0 1
vn -2.220446049250313e-16 0 -1
vn 0 1 0
vn 0 -1 0
vn -1 0 2.220446049250313e-16
vn 1 0 -2.220446049250313e-16
usemtl m_505d60bc-1815-2dc2-6721-c4d75db948e9
f 82/241/61 81/242/61 83/243/61 84/244/61
f 87/245/62 85/246/62 86/247/62 88/248/62
f 85/249/63 81/250/63 82/251/63 86/252/63
f 84/253/64 83/254/64 87/255/64 88/256/64
f 83/257/65 81/258/65 85/259/65 87/260/65
f 86/261/66 82/262/66 84/263/66 88/264/66
o cuboid
v -2.4999999999999996 0.3125 -11.71875
v 2.5000000000000004 0.3125 -11.71875
v -2.4999999999999996 -0.3125 -11.71875
v 2.5000000000000004 -0.3125 -11.71875
v -2.4999999999999996 0.3125 -12.28125
v 2.5000000000000004 0.3125 -12.28125
v -2.4999999999999996 -0.3125 -12.28125
v 2.5000000000000004 -0.3125 -12.28125
vt 0.6201171875 1
vt 0.5419921875 1
vt 0.5419921875 0.990234375
vt 0.6201171875 0.990234375
vt 0.65234375 0.5615234375
vt 0.65234375 0.5712890625
vt 0.57421875 0.5712890625
vt 0.57421875 0.5615234375
vt 0.28515625 0.337890625
vt 0.2939453125 0.337890625
vt 0.2939453125 0.416015625
vt 0.28515625 0.416015625
vt 0.3037109375 0.337890625
vt 0.3037109375 0.416015625
vt 0.294921875 0.416015625
vt 0.294921875 0.337890625
vt 0.384765625 0.40625
vt 0.384765625 0.416015625
vt 0.3759765625 0.416015625
vt 0.3759765625 0.40625
vt 0.59375 0.8876953125
vt 0.5849609375 0.8876953125
vt 0.5849609375 0.8779296875
vt 0.59375 0.8779296875
vn 2.220446049250313e-16 0 1
vn -2.220446049250313e-16 0 -1
vn 0 1 0
vn 0 -1 0
vn -1 0 2.220446049250313e-16
vn 1 0 -2.220446049250313e-16
usemtl m_505d60bc-1815-2dc2-6721-c4d75db948e9
f 90/265/67 89/266/67 91/267/67 92/268/67
f 95/269/68 93/270/68 94/271/68 96/272/68
f 93/273/69 89/274/69 90/275/69 94/276/69
f 92/277/70 91/278/70 95/279/70 96/280/70
f 91/281/71 89/282/71 93/283/71 95/284/71
f 94/285/72 90/286/72 92/287/72 96/288/72