# Made in Blockbench 4.8.3
mtllib Tote.mtl

o cuboid
v 0.1875 0.5 0.0625
v 0.1875 0.5 -0.0625
v 0.1875 0 0.0625
v 0.1875 0 -0.0625
v -0.1875 0.5 0.0625
v -0.1875 0.5 -0.0625
v -0.1875 0 0.0625
v -0.1875 0 -0.0625
vt 0.0625 0.71875
vt 0 0.71875
vt 0 0.46875
vt 0.0625 0.46875
vt 0.15625 0.46875
vt 0.15625 0.71875
vt 0.09375 0.71875
vt 0.09375 0.46875
vt 0.1875 0.65625
vt 0.375 0.65625
vt 0.375 0.71875
vt 0.1875 0.71875
vt 0.375 0.5625
vt 0.375 0.625
vt 0.1875 0.625
vt 0.1875 0.5625
vt 0.1875 0.75
vt 0.1875 1
vt 0 1
vt 0 0.75
vt 0.40625 1
vt 0.21875 1
vt 0.21875 0.75
vt 0.40625 0.75
vn 1 0 0
vn -1 0 0
vn 0 1 0
vn 0 -1 0
vn 0 0 1
vn 0 0 -1
usemtl m_20a8ef97-b716-2530-a075-e07d2fbcb56d
f 2/1/1 1/2/1 3/3/1 4/4/1
f 7/5/2 5/6/2 6/7/2 8/8/2
f 5/9/3 1/10/3 2/11/3 6/12/3
f 4/13/4 3/14/4 7/15/4 8/16/4
f 3/17/5 1/18/5 5/19/5 7/20/5
f 6/21/6 2/22/6 4/23/6 8/24/6
o cuboid
v 0.5 0.5 0.25
v 0.5 0.5 -0.25
v 0.4375 0 0.1875
v 0.4375 0 -0.1875
v -0.5 0.5 0.25
v -0.5 0.5 -0.25
v -0.4375 0 0.1875
v -0.4375 0 -0.1875
v 0.49423521517246793 0.45388172137974336 0.24423521517246793
v 0.49423521517246793 0.45388172137974336 -0.24423521517246793
v 0.46875 0.4535849903180452 0.20513562378975567
v 0.46875 0.4535849903180452 -0.20513562378975567
v -0.49423521517246793 0.45388172137974336 -0.24423521517246793
v -0.46875 0.4535849903180452 -0.20513562378975567
v -0.49423521517246793 0.45388172137974336 0.24423521517246793
v -0.46875 0.4535849903180452 0.20513562378975567
vt 0.375 0.625
vt 0.38722140594743887 0.7227712475795114
vt 0.26902859405256113 0.7227712475795114
vt 0.28125 0.625
vt 0.109375 0.59375
vt 0.12159640594743892 0.6915212475795114
vt 0.003403594052561087 0.6915212475795114
vt 0.015625 0.59375
vt 0 0.875
vt 0.25 0.875
vt 0.25 1
vt 0 1
vt 0.484375 0.765625
vt 0.484375 0.859375
vt 0.265625 0.859375
vt 0.265625 0.765625
vt 0.234375 0.734375
vt 0.24659640594743892 0.8321462475795113
vt 0.003403594052561087 0.8321462475795113
vt 0.015625 0.734375
vt 0.5 0.875
vt 0.5122214059474389 0.9727712475795113
vt 0.26902859405256113 0.9727712475795113
vt 0.28125 0.875
vt 0.265625 0.75
vt 0.26706619620688304 0.7384704303449359
vt 0.38918380379311696 0.7384704303449359
vt 0.390625 0.75
vt 0.26706619620688304 0.7384704303449359
vt 0.26902859405256113 0.7227712475795114
vt 0.38722140594743887 0.7227712475795114
vt 0.38918380379311696 0.7384704303449359
vt 0.265625 1
vt 0.26706619620688304 0.9884704303449359
vt 0.514183803793117 0.9884704303449359
vt 0.515625 1
vt 0.26706619620688304 0.9884704303449359
vt 0.26902859405256113 0.9727712475795113
vt 0.5122214059474389 0.9727712475795113
vt 0.514183803793117 0.9884704303449359
vt 0 0.71875
vt 0.0014411962068830199 0.7072204303449359
vt 0.12355880379311698 0.7072204303449359
vt 0.125 0.71875
vt 0.0014411962068830199 0.7072204303449359
vt 0.003403594052561087 0.6915212475795114
vt 0.12159640594743892 0.6915212475795114
vt 0.12355880379311698 0.7072204303449359
vt 0 0.859375
vt 0.0014411962068830199 0.8478454303449359
vt 0.24855880379311698 0.8478454303449359
vt 0.25 0.859375
vt 0.0014411962068830199 0.8478454303449359
vt 0.003403594052561087 0.8321462475795113
vt 0.24659640594743892 0.8321462475795113
vt 0.24855880379311698 0.8478454303449359
vn 0.9976351152286651 -0.06873264772063047 0
vn -0.9976351152286651 -0.06873264772063047 0
vn 0 1 0
vn 0 -1 0
vn 0 -0.038851173239640865 0.9992450081626145
vn 0 -0.038851173239640865 -0.9992450081626145
vn 0.9922778767136677 -0.12403473458920816 0
vn 0.011642473821659666 -0.9999322241048701 0
vn 0 -0.12403473458920819 -0.9922778767136677
vn 0 -0.9999712039559961 -0.007588890485147777
vn -0.9922778767136677 -0.12403473458920816 0
vn -0.011642473821659666 -0.9999322241048701 0
vn 0 -0.12403473458920819 0.9922778767136677
vn 0 -0.9999712039559961 0.007588890485147777
usemtl m_1c2329b4-498a-6830-4b26-b48db6b9c985
f 12/25/7 20/26/7 19/27/7 11/28/7
f 15/29/8 24/30/8 22/31/8 16/32/8
f 13/33/9 9/34/9 10/35/9 14/36/9
f 12/37/10 11/38/10 15/39/10 16/40/10
f 11/41/11 19/42/11 24/43/11 15/44/11
f 16/45/12 22/46/12 20/47/12 12/48/12
f 9/49/13 17/50/13 18/51/13 10/52/13
f 17/53/14 19/54/14 20/55/14 18/56/14
f 10/57/15 18/58/15 21/59/15 14/60/15
f 18/61/16 20/62/16 22/63/16 21/64/16
f 14/65/17 21/66/17 23/67/17 13/68/17
f 21/69/18 22/70/18 24/71/18 23/72/18
f 13/73/19 23/74/19 17/75/19 9/76/19
f 23/77/20 24/78/20 19/79/20 17/80/20